<svg version="1.1" id="Layer_1" xmlns="http://www.w3.org/2000/svg" xmlns:xlink="http://www.w3.org/1999/xlink" x="0px" y="0px"
	 width="100%" viewBox="0 0 640 640" enable-background="new 0 0 640 640" xml:space="preserve">
<path fill="#FFFFFF" opacity="1.000000" stroke="none" 
	d="
M641.000000,285.000000 
	C641.000000,308.020905 641.000000,331.041779 640.630615,354.229370 
	C639.507935,357.983948 638.774475,361.576111 637.998108,365.159027 
	C634.724670,380.266022 632.055664,395.537567 628.016296,410.437347 
	C621.525635,434.379028 611.412720,456.892395 598.997742,478.390381 
	C587.352905,498.554840 573.667969,517.249695 557.966370,534.357971 
	C541.399597,552.408997 522.865540,568.300598 502.509796,582.058472 
	C484.190369,594.440002 464.880249,604.840515 444.434998,613.275940 
	C426.271362,620.769836 407.668793,626.964233 388.432465,630.626526 
	C372.479370,633.663696 356.238708,636.023682 340.040192,636.731140 
	C318.968445,637.651428 297.718994,638.233154 276.816833,633.963501 
	C261.673981,630.870239 246.452652,627.988708 231.534531,624.007629 
	C208.493500,617.858765 186.833694,608.200623 165.983154,596.576904 
	C144.061417,584.356018 123.757484,569.870605 105.556107,552.734863 
	C93.949333,541.807617 83.553474,529.543884 73.079391,517.476074 
	C58.940853,501.186188 47.892811,482.769257 38.011784,463.676239 
	C28.476307,445.250824 21.274494,425.893707 15.434060,405.981964 
	C9.295641,385.054291 5.284362,363.646667 4.302087,342.006622 
	C3.293731,319.791992 2.477850,297.354309 7.024641,275.283478 
	C10.175993,259.986328 12.974264,244.578125 17.021124,229.512573 
	C23.457748,205.550415 33.615124,183.050476 46.027802,161.557205 
	C57.671574,141.395340 71.181107,122.517120 87.156120,105.675072 
	C98.702530,93.501976 111.007050,81.776917 124.327080,71.628708 
	C139.525864,60.049114 155.858978,49.813885 172.368607,40.136509 
	C192.244324,28.486044 213.941330,20.876350 236.044876,14.420174 
	C256.977173,8.306102 278.383270,4.256392 300.024353,3.305035 
	C322.572540,2.313799 345.344696,1.427233 367.747070,6.027668 
	C383.045258,9.169222 398.427582,12.053921 413.518036,16.020613 
	C439.764435,22.919754 464.244324,34.261242 487.452179,48.188568 
	C506.560394,59.655693 524.422546,72.949532 540.666260,88.244301 
	C561.230469,107.607162 579.025330,129.248917 593.944702,153.316757 
	C605.163208,171.414520 614.636108,190.334793 621.892212,210.280991 
	C630.453857,233.816132 636.872192,257.944550 639.078796,283.031891 
	C639.140930,283.738770 640.334167,284.346191 641.000000,285.000000 
M326.500000,104.999306 
	C309.170013,104.999321 291.839661,104.923401 274.510162,105.017097 
	C248.296555,105.158829 228.015640,124.076828 226.689941,150.114258 
	C226.090530,161.886780 226.588287,173.715179 226.588287,185.999313 
	C224.354538,185.999313 222.560013,185.999329 220.765488,185.999329 
	C200.602646,185.999344 180.426285,185.573929 160.283737,186.213455 
	C152.472733,186.461456 144.103806,187.729462 137.087234,190.935944 
	C115.670113,200.723267 105.172638,218.252151 105.032265,241.768158 
	C104.885056,266.429291 104.999313,291.091949 104.999306,315.753937 
	C104.999306,317.373840 104.999306,318.993744 104.999306,320.628998 
	C249.257568,320.628998 393.092194,320.628998 536.997009,320.628998 
	C536.997009,293.263275 537.316223,266.262878 536.782043,239.279388 
	C536.640991,232.152145 535.063538,224.524231 532.084229,218.079071 
	C522.194336,196.684082 504.738373,186.219345 481.232208,186.028107 
	C463.403442,185.883072 445.572540,185.999344 427.742584,185.999329 
	C423.780029,185.999329 419.817444,185.999313 415.560272,185.999313 
	C415.560272,175.219345 415.767181,164.909393 415.474426,154.613647 
	C415.324341,149.334015 415.104187,143.813217 413.499695,138.860138 
	C406.519135,117.310936 389.150238,105.040955 366.492615,105.003220 
	C353.495117,104.981575 340.497528,104.999306 326.500000,104.999306 
M104.998657,390.500000 
	C104.998734,412.165161 104.889816,433.831024 105.025024,455.495361 
	C105.216759,486.216736 128.814163,509.933777 159.546051,509.962341 
	C267.205597,510.062378 374.865570,510.092285 482.524445,509.802734 
	C489.968018,509.782715 497.991425,508.217896 504.734894,505.150421 
	C526.183716,495.393768 536.804260,477.942902 536.955872,454.427734 
	C537.144958,425.097534 537.005249,395.765198 536.990112,366.433777 
	C536.989319,364.850006 536.827637,363.266296 536.739197,361.652893 
	C482.685486,361.652893 429.076355,361.652893 374.998230,361.652893 
	C374.998230,366.140472 375.050110,370.428375 374.988922,374.714661 
	C374.768158,390.184143 363.183929,401.863159 347.714325,401.969666 
	C329.882965,402.092499 312.049408,402.099426 294.218201,401.967560 
	C278.712494,401.852905 267.216858,390.196655 267.010345,374.647156 
	C266.953522,370.369995 267.001709,366.091431 267.001709,361.733093 
	C212.728119,361.733093 158.981262,361.733093 104.998657,361.733093 
	C104.998657,371.183990 104.998657,380.342010 104.998657,390.500000 
z"/>
<path fill="#000000" opacity="1.000000" stroke="none" 
	d="
M641.000000,284.531342 
	C640.334167,284.346191 639.140930,283.738770 639.078796,283.031891 
	C636.872192,257.944550 630.453857,233.816132 621.892212,210.280991 
	C614.636108,190.334793 605.163208,171.414520 593.944702,153.316757 
	C579.025330,129.248917 561.230469,107.607162 540.666260,88.244301 
	C524.422546,72.949532 506.560394,59.655693 487.452179,48.188568 
	C464.244324,34.261242 439.764435,22.919754 413.518036,16.020613 
	C398.427582,12.053921 383.045258,9.169222 367.747070,6.027668 
	C345.344696,1.427233 322.572540,2.313799 300.024353,3.305035 
	C278.383270,4.256392 256.977173,8.306102 236.044876,14.420174 
	C213.941330,20.876350 192.244324,28.486044 172.368607,40.136509 
	C155.858978,49.813885 139.525864,60.049114 124.327080,71.628708 
	C111.007050,81.776917 98.702530,93.501976 87.156120,105.675072 
	C71.181107,122.517120 57.671574,141.395340 46.027802,161.557205 
	C33.615124,183.050476 23.457748,205.550415 17.021124,229.512573 
	C12.974264,244.578125 10.175993,259.986328 7.024641,275.283478 
	C2.477850,297.354309 3.293731,319.791992 4.302087,342.006622 
	C5.284362,363.646667 9.295641,385.054291 15.434060,405.981964 
	C21.274494,425.893707 28.476307,445.250824 38.011784,463.676239 
	C47.892811,482.769257 58.940853,501.186188 73.079391,517.476074 
	C83.553474,529.543884 93.949333,541.807617 105.556107,552.734863 
	C123.757484,569.870605 144.061417,584.356018 165.983154,596.576904 
	C186.833694,608.200623 208.493500,617.858765 231.534531,624.007629 
	C246.452652,627.988708 261.673981,630.870239 276.816833,633.963501 
	C297.718994,638.233154 318.968445,637.651428 340.040192,636.731140 
	C356.238708,636.023682 372.479370,633.663696 388.432465,630.626526 
	C407.668793,626.964233 426.271362,620.769836 444.434998,613.275940 
	C464.880249,604.840515 484.190369,594.440002 502.509796,582.058472 
	C522.865540,568.300598 541.399597,552.408997 557.966370,534.357971 
	C573.667969,517.249695 587.352905,498.554840 598.997742,478.390381 
	C611.412720,456.892395 621.525635,434.379028 628.016296,410.437347 
	C632.055664,395.537567 634.724670,380.266022 637.998108,365.159027 
	C638.774475,361.576111 639.507935,357.983948 640.630615,354.697998 
	C641.000000,450.316650 641.000000,545.633301 641.000000,640.974976 
	C427.720673,640.974976 214.441330,640.974976 1.080997,640.974976 
	C1.080997,427.758026 1.080997,214.515991 1.080997,1.136978 
	C214.333282,1.136978 427.666626,1.136978 641.000000,1.136978 
	C641.000000,95.430222 641.000000,189.746460 641.000000,284.531342 
z"/>
<path fill="#0A0A41" opacity="1.000000" stroke="none" 
	d="
M327.000000,104.999306 
	C340.497528,104.999306 353.495117,104.981575 366.492615,105.003220 
	C389.150238,105.040955 406.519135,117.310936 413.499695,138.860138 
	C415.104187,143.813217 415.324341,149.334015 415.474426,154.613647 
	C415.767181,164.909393 415.560272,175.219345 415.560272,185.999313 
	C419.817444,185.999313 423.780029,185.999329 427.742584,185.999329 
	C445.572540,185.999344 463.403442,185.883072 481.232208,186.028107 
	C504.738373,186.219345 522.194336,196.684082 532.084229,218.079071 
	C535.063538,224.524231 536.640991,232.152145 536.782043,239.279388 
	C537.316223,266.262878 536.997009,293.263275 536.997009,320.628998 
	C393.092194,320.628998 249.257568,320.628998 104.999306,320.628998 
	C104.999306,318.993744 104.999306,317.373840 104.999306,315.753937 
	C104.999313,291.091949 104.885056,266.429291 105.032265,241.768158 
	C105.172638,218.252151 115.670113,200.723267 137.087234,190.935944 
	C144.103806,187.729462 152.472733,186.461456 160.283737,186.213455 
	C180.426285,185.573929 200.602646,185.999344 220.765488,185.999329 
	C222.560013,185.999329 224.354538,185.999313 226.588287,185.999313 
	C226.588287,173.715179 226.090530,161.886780 226.689941,150.114258 
	C228.015640,124.076828 248.296555,105.158829 274.510162,105.017097 
	C291.839661,104.923401 309.170013,104.999321 327.000000,104.999306 
M342.500244,145.560333 
	C320.205261,145.560410 297.910248,145.543655 275.615295,145.572098 
	C269.855164,145.579453 267.194672,147.440994 267.091217,152.322372 
	C266.856079,163.416504 267.017090,174.519043 267.017090,185.659393 
	C303.243103,185.659393 339.053162,185.659393 374.998505,185.659393 
	C374.998505,174.680954 375.073151,164.041275 374.967773,153.403351 
	C374.913086,147.884949 372.539825,145.633102 366.959717,145.579926 
	C359.140533,145.505386 351.320160,145.560577 342.500244,145.560333 
z"/>
<path fill="#0B0B42" opacity="1.000000" stroke="none" 
	d="
M104.998657,390.000000 
	C104.998657,380.342010 104.998657,371.183990 104.998657,361.733093 
	C158.981262,361.733093 212.728119,361.733093 267.001709,361.733093 
	C267.001709,366.091431 266.953522,370.369995 267.010345,374.647156 
	C267.216858,390.196655 278.712494,401.852905 294.218201,401.967560 
	C312.049408,402.099426 329.882965,402.092499 347.714325,401.969666 
	C363.183929,401.863159 374.768158,390.184143 374.988922,374.714661 
	C375.050110,370.428375 374.998230,366.140472 374.998230,361.652893 
	C429.076355,361.652893 482.685486,361.652893 536.739197,361.652893 
	C536.827637,363.266296 536.989319,364.850006 536.990112,366.433777 
	C537.005249,395.765198 537.144958,425.097534 536.955872,454.427734 
	C536.804260,477.942902 526.183716,495.393768 504.734894,505.150421 
	C497.991425,508.217896 489.968018,509.782715 482.524445,509.802734 
	C374.865570,510.092285 267.205597,510.062378 159.546051,509.962341 
	C128.814163,509.933777 105.216759,486.216736 105.025024,455.495361 
	C104.889816,433.831024 104.998734,412.165161 104.998657,390.000000 
z"/>
<path fill="#FFFFFF" opacity="1.000000" stroke="none" 
	d="
M343.000244,145.560303 
	C351.320160,145.560577 359.140533,145.505386 366.959717,145.579926 
	C372.539825,145.633102 374.913086,147.884949 374.967773,153.403351 
	C375.073151,164.041275 374.998505,174.680954 374.998505,185.659393 
	C339.053162,185.659393 303.243103,185.659393 267.017090,185.659393 
	C267.017090,174.519043 266.856079,163.416504 267.091217,152.322372 
	C267.194672,147.440994 269.855164,145.579453 275.615295,145.572098 
	C297.910248,145.543655 320.205261,145.560410 343.000244,145.560303 
z"/>
</svg>